<?xml version="1.0" encoding="iso-8859-1"?>
<!-- Generator: Adobe Illustrator 19.0.0, SVG Export Plug-In . SVG Version: 6.00 Build 0)  -->
<svg version="1.1" id="Layer_1" xmlns="http://www.w3.org/2000/svg" xmlns:xlink="http://www.w3.org/1999/xlink" x="0px" y="0px"
	 viewBox="0 0 512.001 512.001" style="enable-background:new 0 0 512.001 512.001;" xml:space="preserve">
<g>
	<g>
		<g>
			<path d="M294.262,191.983c-8.504,0-15.396,6.892-15.396,15.394c0,8.501,6.892,15.393,15.396,15.393
				c8.5,0,15.392-6.891,15.392-15.393S302.762,191.983,294.262,191.983z"/>
			<circle cx="254.439" cy="181.93" r="9.905"/>
			<path d="M207.993,200.95c-19.64,0-35.617,15.978-35.617,35.617c0,19.64,15.978,35.617,35.617,35.617
				c19.639,0,35.616-15.978,35.616-35.617C243.609,216.928,227.633,200.95,207.993,200.95z M207.993,255.822
				c-10.617,0-19.254-8.637-19.254-19.254c0-10.617,8.637-19.254,19.254-19.254c10.616,0,19.253,8.637,19.253,19.254
				C227.246,247.184,218.609,255.822,207.993,255.822z"/>
			<path d="M511.248,195.609c-9.544-35.621-100.67-28.131-154.39-20.443c-23.921-30.233-60.921-49.666-102.376-49.666
				c-65.545,0-119.952,48.575-129.129,111.617c-0.313,0.084-0.625,0.182-0.934,0.305C74.134,257.581-8.796,296.725,0.759,332.395
				c4.766,17.784,30.358,26.767,76.146,26.767c4.836,0,9.896-0.1,15.182-0.3c22.05-0.837,46.841-3.411,73.359-7.547
				c23.334,21.811,54.65,35.186,89.035,35.186c26.434,0,51.052-7.909,71.629-21.472c0.175-0.098,0.355-0.182,0.523-0.294
				c7.994-5.315,15.333-11.509,21.93-18.393c0.444-0.463,0.881-0.932,1.319-1.4c0.756-0.812,1.503-1.63,2.237-2.46
				c0.626-0.706,1.245-1.419,1.856-2.138c0.353-0.417,0.711-0.83,1.059-1.252c0.904-1.092,1.787-2.203,2.655-3.326
				c0.247-0.32,0.493-0.639,0.737-0.96c0.93-1.225,1.842-2.465,2.731-3.723c0.11-0.156,0.216-0.313,0.326-0.47
				c1.961-2.805,3.815-5.689,5.556-8.648c0.04-0.069,0.082-0.137,0.122-0.207c0.881-1.504,1.732-3.028,2.555-4.57
				c0.025-0.046,0.049-0.093,0.074-0.14c2.512-4.727,4.742-9.624,6.667-14.673c0.001-0.002,0.002-0.004,0.002-0.008
				c1.071-2.808,2.049-5.661,2.927-8.558c31.478-12.225,59.23-25.17,81.131-38.021c3.896-2.286,5.202-7.299,2.916-11.196
				c-2.287-3.898-7.302-5.201-11.198-2.916c-18.821,11.045-42.157,22.181-68.579,32.86c0.865-6.057,1.322-12.244,1.322-18.537
				c0-23.955-6.494-46.417-17.805-65.734c36.342-4.81,67.629-6.228,90.862-4.085c25.511,2.352,36.05,8.6,37.407,13.664
				c1.264,4.722-4.001,14.658-22.576,28.378c-3.635,2.685-4.405,7.807-1.719,11.442c1.605,2.172,4.079,3.32,6.586,3.32
				c1.689,0,3.392-0.521,4.854-1.601C505.257,224.639,514.9,209.238,511.248,195.609z M91.466,342.511
				c-55.524,2.105-73.207-8.029-74.903-14.35c-1.355-5.059,4.639-15.733,25.529-30.513c19.263-13.629,47.484-28.227,81.898-42.389
				c-0.001,0.248-0.01,0.493-0.01,0.741c0,30.475,10.503,58.54,28.074,80.775C130.283,339.864,109.88,341.812,91.466,342.511z
				 M254.481,370.137c-25.383,0-48.853-8.333-67.83-22.4c27.7-5.008,56.898-11.569,86.559-19.517
				c3.599-0.964,7.177-1.947,10.744-2.941c2.254,13.417,9.866,25.375,20.8,33.17C289.578,365.927,272.513,370.137,254.481,370.137z
				 M358.168,303.68c-0.002,0.005-0.004,0.01-0.007,0.015c-1.173,2.538-2.438,5.032-3.793,7.474
				c-0.023,0.041-0.047,0.083-0.07,0.125c-1.323,2.379-2.731,4.71-4.219,6.988c-0.081,0.124-0.162,0.248-0.244,0.371
				c-1.412,2.145-2.898,4.238-4.451,6.283c-0.208,0.274-0.418,0.548-0.628,0.819c-0.632,0.818-1.275,1.626-1.93,2.427
				c-0.327,0.399-0.659,0.794-0.99,1.189c-0.488,0.58-0.981,1.157-1.48,1.728c-0.415,0.473-0.83,0.945-1.252,1.41
				c-0.289,0.321-0.586,0.635-0.878,0.952c-0.937,1.012-1.888,2.01-2.861,2.988c-0.109,0.11-0.217,0.22-0.327,0.329
				c-4.392,4.38-9.138,8.403-14.191,12.025c-11.509-4.816-19.607-15.67-20.989-28.078c20.586-6.059,40.493-12.56,59.323-19.354
				C358.845,302.144,358.519,302.917,358.168,303.68z M302.671,302.819c5.413-11.983,17.469-20.347,31.448-20.347
				c6.085,0,11.892,1.562,16.969,4.429C335.61,292.432,319.402,297.769,302.671,302.819z M368.618,255.999
				c-0.001,7.435-0.723,14.703-2.088,21.745c-8.967-7.443-20.315-11.635-32.411-11.635c-25.076,0-45.957,18.248-50.098,42.158
				c-4.982,1.409-9.996,2.794-15.045,4.146c-33.819,9.063-66.979,16.29-97.891,21.422c-19.057-20.405-30.741-47.78-30.741-77.836
				c0-62.935,51.202-114.137,114.138-114.137C317.416,141.863,368.618,193.064,368.618,255.999z"/>
		</g>
	</g>
</g>
<g>
</g>
<g>
</g>
<g>
</g>
<g>
</g>
<g>
</g>
<g>
</g>
<g>
</g>
<g>
</g>
<g>
</g>
<g>
</g>
<g>
</g>
<g>
</g>
<g>
</g>
<g>
</g>
<g>
</g>
</svg>
